HIERARCHY
ROOT Pelvis
{
	OFFSET 0.000000 0.000000 0.000000
	CHANNELS 6 Xposition Yposition Zposition Xrotation Yrotation Zrotation
	JOINT LeftUpLeg_virtual
	{
		OFFSET 0.000000 0.000000 0.000000
		CHANNELS 3 Xrotation Yrotation Zrotation
		JOINT LeftUpLeg
		{
			OFFSET 18.735201 -5.666702 -4.541200
			CHANNELS 3 Xrotation Yrotation Zrotation
			JOINT LeftLeg
			{
				OFFSET -0.021200 -31.938179 0.493100
				CHANNELS 3 Xrotation Yrotation Zrotation
				JOINT LeftFoot
				{
					OFFSET 0.021200 -31.938179 -4.336299
					CHANNELS 3 Xrotation Yrotation Zrotation
					JOINT LeftToeBase
					{
						OFFSET 0.943001 -26.722000 15.023500
						CHANNELS 3 Xrotation Yrotation Zrotation
						End Site
						{
							OFFSET 0 0 0
						}
					}
				}
			}
		}
	}
	JOINT RightUpLeg_virtual
	{
		OFFSET 0.000000 0.000000 0.000000
		CHANNELS 3 Xrotation Yrotation Zrotation
		JOINT RightUpLeg
		{
			OFFSET -18.735201 -5.666702 -4.541200
			CHANNELS 3 Xrotation Yrotation Zrotation
			JOINT RightLeg
			{
				OFFSET 0.018946 -31.938133 0.493100
				CHANNELS 3 Xrotation Yrotation Zrotation
				JOINT RightFoot
				{
					OFFSET -0.018946 -31.938126 -4.336299
					CHANNELS 3 Xrotation Yrotation Zrotation
					JOINT RightToeBase
					{
						OFFSET -0.943001 -26.722004 15.023500
						CHANNELS 3 Xrotation Yrotation Zrotation
						End Site
						{
							OFFSET 0 0 0
						}
					}
				}
			}
		}
	}
	JOINT Hips_virtual
	{
		OFFSET 0.000000 0.000000 0.000000
		CHANNELS 3 Xrotation Yrotation Zrotation
		JOINT Hips
		{
			OFFSET -0.000000 -0.000000 -0.000000
			CHANNELS 3 Xrotation Yrotation Zrotation
			JOINT Spine
			{
				OFFSET 0.000000 10.199997 -0.299500
				CHANNELS 3 Xrotation Yrotation Zrotation
				JOINT Spine1
				{
					OFFSET 0.000000 11.900002 -1.516600
					CHANNELS 3 Xrotation Yrotation Zrotation
					JOINT Spine2
					{
						OFFSET 0.000000 13.600006 -2.842500
						CHANNELS 3 Xrotation Yrotation Zrotation
						JOINT Neck_virtual
						{
							OFFSET 0.000000 0.000000 0.000000
							CHANNELS 3 Xrotation Yrotation Zrotation
							JOINT Neck
							{
								OFFSET 0.000000 9.624100 -2.890100
								CHANNELS 3 Xrotation Yrotation Zrotation
								JOINT Head
								{
									OFFSET 0.000000 14.068802 -1.351900
									CHANNELS 3 Xrotation Yrotation Zrotation
									End Site
									{
										OFFSET 0 0 0
									}
								}
							}
						}
						JOINT LeftShoulder_virtual
						{
							OFFSET 0.000000 0.000000 0.000000
							CHANNELS 3 Xrotation Yrotation Zrotation
							JOINT LeftShoulder
							{
								OFFSET 15.263000 10.923401 -0.547700
								CHANNELS 3 Xrotation Yrotation Zrotation
								JOINT LeftArm
								{
									OFFSET 25.438599 -2.830597 -13.032500
									CHANNELS 3 Xrotation Yrotation Zrotation
									JOINT LeftForeArm
									{
										OFFSET 29.960503 0.000000 0.000000
										CHANNELS 3 Xrotation Yrotation Zrotation
										JOINT LeftHand
										{
											OFFSET 27.849251 0.000000 0.000000
											CHANNELS 3 Xrotation Yrotation Zrotation
											End Site
											{
												OFFSET 0 0 0
											}
										}
									}
								}
							}
						}
						JOINT RightShoulder_virtual
						{
							OFFSET 0.000000 0.000000 0.000000
							CHANNELS 3 Xrotation Yrotation Zrotation
							JOINT RightShoulder
							{
								OFFSET -15.263000 10.923401 -0.547700
								CHANNELS 3 Xrotation Yrotation Zrotation
								JOINT RightArm
								{
									OFFSET -25.438599 -2.830597 -13.032500
									CHANNELS 3 Xrotation Yrotation Zrotation
									JOINT RightForeArm
									{
										OFFSET -29.960503 0.000000 0.000000
										CHANNELS 3 Xrotation Yrotation Zrotation
										JOINT RightHand
										{
											OFFSET -27.849251 0.000000 0.000000
											CHANNELS 3 Xrotation Yrotation Zrotation
											End Site
											{
												OFFSET 0 0 0
											}
										}
									}
								}
							}
						}
					}
				}
			}
		}
	}
}
MOTION
Frames: 7
Frame Time: 0.03333333
10.481789 92.770935 17.824923 0.000000 0.000000 0.000000 -0.820473 3.841685 -5.252735 1.539752 9.834027 7.785829 24.571821 -7.348459 -0.258450 -22.508935 5.455584 -1.988307 0.000000 0.000000 0.000000 -1.004519 5.152261 -5.965127 -36.916192 -5.602355 -3.194469 31.947622 -0.301237 0.773003 3.973559 3.283845 8.879682 0.000000 0.000000 0.000000 -1.333815 4.120233 -4.773547 0.639926 -0.152775 -1.641645 11.044010 -0.427703 3.691512 0.088594 -1.823754 0.967628 0.000000 0.000000 0.000000 -3.278047 -1.720707 0.213699 -0.746851 -0.434121 1.295786 0.000000 0.000000 0.000000 -2.927274 -1.714573 0.096466 1.775276 -2.365861 -2.327206 -5.671262 -12.474016 -72.920609 10.739727 -20.515962 -4.409306 0.000000 0.000000 0.000000 -3.159617 -1.605928 0.458460 2.635159 3.285501 4.293855 0.470751 4.364458 73.573507 10.940311 16.113753 1.412813 0.000000 0.000000 0.000000 
10.543014 92.634651 19.653637 0.000000 0.000000 0.000000 -0.330738 3.111168 -5.881528 2.835994 11.102261 8.960893 23.321748 -7.234205 -0.471951 -23.434053 6.602732 -1.375662 0.000000 0.000000 0.000000 -0.363238 4.169602 -6.794133 -36.709340 -6.510108 -3.014089 25.872743 1.453960 1.692894 2.125176 4.821552 10.344320 0.000000 0.000000 0.000000 -0.724961 3.445394 -5.353493 0.677474 -0.017272 -1.659121 10.959792 -0.510691 3.777414 0.046096 -1.927235 1.128535 0.000000 0.000000 0.000000 -3.272970 -1.815016 0.311429 -0.769211 -0.424867 1.323863 0.000000 0.000000 0.000000 -2.964446 -1.817973 0.226106 1.690859 -2.046254 -2.684529 -5.673291 -13.212660 -72.270477 10.809722 -21.468514 -4.961649 0.000000 0.000000 0.000000 -3.254493 -1.702867 0.535867 2.627699 3.237837 4.665554 1.267794 4.060816 73.347749 10.835901 16.036984 2.178773 0.000000 0.000000 0.000000 
10.455975 92.419434 21.507782 0.000000 0.000000 0.000000 0.025530 2.530410 -6.225916 3.974859 11.476547 10.199479 22.403569 -7.257657 -0.359573 -24.205456 7.513112 -0.470590 0.000000 0.000000 0.000000 0.068488 3.445049 -7.264326 -36.813668 -7.135075 -2.764175 20.887847 2.837919 2.268481 1.998114 5.844590 10.787859 0.000000 0.000000 0.000000 -0.277162 3.080574 -5.758817 0.611008 0.026602 -1.624789 11.186294 -0.716878 3.599518 -0.054983 -2.102446 1.409246 0.000000 0.000000 0.000000 -3.357624 -1.985534 0.541923 -0.773719 -0.405125 1.299783 0.000000 0.000000 0.000000 -3.077224 -2.004799 0.493248 1.557473 -1.798936 -3.338864 -5.489742 -14.148292 -71.582254 10.911068 -22.422606 -5.507070 0.000000 0.000000 0.000000 -3.385385 -1.870204 0.749810 2.612085 3.286453 4.893462 1.964168 3.961585 73.213727 10.634894 16.304488 2.778643 0.000000 0.000000 0.000000 
10.188107 92.070015 23.470205 0.000000 0.000000 0.000000 0.400533 2.152456 -6.178521 5.572202 10.639077 11.116050 21.238419 -7.711985 0.188042 -24.537936 7.885836 0.063101 0.000000 0.000000 0.000000 0.368733 3.061469 -7.285848 -37.006549 -7.316993 -2.318418 17.185065 3.566880 2.337929 1.064467 5.632612 9.782769 0.000000 0.000000 0.000000 0.049498 3.132989 -5.933410 0.362699 0.063295 -1.469662 11.650040 -1.016380 3.238457 -0.219692 -2.328364 1.735758 0.000000 0.000000 0.000000 -3.564524 -2.211041 0.832436 -0.765668 -0.381189 1.235568 0.000000 0.000000 0.000000 -3.255996 -2.261669 0.832227 1.396563 -1.616679 -4.168174 -5.222800 -15.162267 -70.930258 11.027900 -23.196178 -5.997272 0.000000 0.000000 0.000000 -3.534881 -2.087539 1.030853 2.576198 3.337680 5.010631 2.525595 4.019218 73.136839 10.367707 17.041488 3.240332 0.000000 0.000000 0.000000 
9.779015 91.625343 25.546642 0.000000 0.000000 0.000000 0.703412 2.249403 -5.797753 7.683167 9.462900 11.630765 19.493804 -8.420703 0.738694 -23.967743 7.650814 -0.399623 0.000000 0.000000 0.000000 0.430500 3.128002 -6.839066 -37.410278 -7.408689 -2.104175 15.477058 3.532408 2.115679 -1.239362 4.266918 7.622749 0.000000 0.000000 0.000000 0.228589 3.574524 -5.824833 0.157395 0.040862 -1.390584 12.260667 -1.372794 2.820322 -0.402727 -2.568082 2.028350 0.000000 0.000000 0.000000 -3.904699 -2.452535 1.107444 -0.753359 -0.360302 1.151157 0.000000 0.000000 0.000000 -3.464503 -2.536594 1.158198 1.245495 -1.469322 -5.016576 -5.113873 -16.100019 -70.418007 11.147740 -23.600983 -6.387860 0.000000 0.000000 0.000000 -3.728225 -2.317300 1.293123 2.539633 3.268974 5.068133 2.867398 4.186102 73.118739 10.048682 18.065348 3.601594 0.000000 0.000000 0.000000 
9.256285 91.063591 27.705151 0.000000 0.000000 0.000000 0.887862 2.949369 -5.203796 9.424172 8.664335 11.981538 17.991567 -8.942877 1.027582 -22.704348 6.992605 -1.639205 0.000000 0.000000 0.000000 0.225300 3.733460 -6.104332 -38.246942 -7.844284 -2.414254 15.729014 2.913631 1.951079 -3.431158 2.499440 5.090652 0.000000 0.000000 0.000000 0.244666 4.260812 -5.436600 -0.125978 0.138717 -1.346409 12.944711 -1.704748 2.466631 -0.550664 -2.767899 2.224696 0.000000 0.000000 0.000000 -4.341657 -2.658599 1.299226 -0.737060 -0.348332 1.070077 0.000000 0.000000 0.000000 -3.653755 -2.778773 1.396357 1.110836 -1.340838 -5.748340 -5.281566 -16.949509 -70.148693 11.246404 -23.561130 -6.675632 0.000000 0.000000 0.000000 -3.940558 -2.506632 1.468658 2.512990 3.035145 5.066440 2.942128 4.471698 73.139353 9.711980 18.919691 3.908338 0.000000 0.000000 0.000000 
8.644202 90.463470 30.117157 0.000000 0.000000 0.000000 0.967453 4.049220 -4.571676 10.208734 8.422176 12.325763 18.029553 -8.965419 1.201406 -21.730394 6.337674 -2.890986 0.000000 0.000000 0.000000 -0.053453 4.706888 -5.344616 -39.227177 -8.168508 -2.927074 17.049218 2.394795 1.990692 -2.964358 1.381088 3.181624 0.000000 0.000000 0.000000 0.159340 5.122883 -4.845651 -0.263997 0.073623 -1.239505 13.639231 -1.959785 2.258831 -0.615721 -2.901852 2.293729 0.000000 0.000000 0.000000 -4.809721 -2.786450 1.364777 -0.717916 -0.346300 1.013048 0.000000 0.000000 0.000000 -3.816087 -2.940301 1.496078 1.001110 -1.203965 -6.284375 -5.658856 -17.625926 -70.122014 11.352219 -23.222116 -6.853113 0.000000 0.000000 0.000000 -4.183266 -2.617637 1.528146 2.516466 2.675538 5.122099 2.753051 4.899539 73.153751 9.406816 19.293140 4.187131 0.000000 0.000000 0.000000 
